<svg width="32" height="32" viewBox="0 0 32 32" fill="none" xmlns="http://www.w3.org/2000/svg">
<path d="M30.9999 23.38V27.88C31.0016 28.2978 30.916 28.7113 30.7487 29.094C30.5813 29.4768 30.3358 29.8204 30.028 30.1028C29.7202 30.3852 29.3568 30.6002 28.961 30.7341C28.5653 30.8679 28.146 30.9176 27.7299 30.88C23.1142 30.3785 18.6804 28.8012 14.7849 26.275C11.1606 23.972 8.0879 20.8993 5.7849 17.275C3.24987 13.3618 1.67226 8.90649 1.1799 4.27C1.14242 3.8552 1.19171 3.43714 1.32465 3.04244C1.45759 2.64773 1.67126 2.28503 1.95205 1.97743C2.23284 1.66983 2.57461 1.42406 2.95559 1.25578C3.33657 1.0875 3.74841 1.00039 4.1649 1H8.6649C9.39286 0.992836 10.0986 1.25062 10.6505 1.7253C11.2025 2.19998 11.563 2.85917 11.6649 3.58C11.8548 5.0201 12.2071 6.43409 12.7149 7.795C12.9167 8.33189 12.9604 8.91537 12.8408 9.47632C12.7211 10.0373 12.4432 10.5522 12.0399 10.96L10.1349 12.865C12.2702 16.6203 15.3796 19.7297 19.1349 21.865L21.0399 19.96C21.4477 19.5567 21.9626 19.2788 22.5236 19.1591C23.0845 19.0395 23.668 19.0832 24.2049 19.285C25.5658 19.7928 26.9798 20.1451 28.4199 20.335C29.1485 20.4378 29.814 20.8048 30.2897 21.3662C30.7654 21.9277 31.0182 22.6444 30.9999 23.38Z" stroke="#333333" stroke-width="2" stroke-linecap="round" stroke-linejoin="round"/>
</svg>
